<?xml version="1.0" encoding="utf-8"?>
<!-- Generator: Adobe Illustrator 16.0.0, SVG Export Plug-In . SVG Version: 6.00 Build 0)  -->
<!DOCTYPE svg PUBLIC "-//W3C//DTD SVG 1.1//EN" "http://www.w3.org/Graphics/SVG/1.1/DTD/svg11.dtd">
<svg version="1.1" id="Layer_2" xmlns="http://www.w3.org/2000/svg" xmlns:xlink="http://www.w3.org/1999/xlink" x="0px" y="0px"
	 width="234.896px" height="255.997px" viewBox="0 0 234.896 255.997" enable-background="new 0 0 234.896 255.997"
	 xml:space="preserve">
<polygon fill="#2F3187" points="111,0 111,45.333 120,45.333 120,9.333 181,9.333 181,96.667 191.333,96.667 191.333,0 "/>
<path fill="#2F3187" d="M38.411,117.598c0.344-39.947,32.82-72.228,72.848-72.228c1.808,0,3.595-0.751,5.37-0.622V36.63
	c-1.787-0.118-3.584-0.199-5.401-0.199c-44.827,0-81.167,36.34-81.167,81.167H38.411z"/>
<polygon fill="#2F3187" points="38.662,164.667 10.667,164.667 10.667,117.598 38.662,117.598 38.662,107.667 0,107.667 0,173.667 
	38.662,173.667 "/>
<rect x="66.688" y="15.475" transform="matrix(0.9893 -0.146 0.146 0.9893 -2.0685 12.0936)" fill="#2F3187" width="29.37" height="9.333"/>
<rect x="29.585" y="37.525" transform="matrix(0.7088 -0.7054 0.7054 0.7088 -16.8713 43.5121)" fill="#2F3187" width="29.371" height="9.333"/>
<rect x="3.645" y="73.526" transform="matrix(0.4351 -0.9004 0.9004 0.4351 -60.0478 60.6739)" fill="#2F3187" width="29.371" height="9.333"/>
<rect x="69.688" y="27.142" transform="matrix(0.1319 0.9913 -0.9913 0.1319 104.7706 -56.0239)" fill="#2F3187" width="29.371" height="9.333"/>
<rect x="39.839" y="46.662" transform="matrix(0.7084 0.7058 -0.7058 0.7084 51.7737 -22.6532)" fill="#2F3187" width="26.925" height="9.334"/>
<rect x="14.177" y="78.191" transform="matrix(0.9004 0.4351 -0.4351 0.9004 38.8033 -3.7723)" fill="#2F3187" width="26.926" height="9.334"/>
<circle fill="#2F3187" cx="109.5" cy="245.83" r="10.167"/>
<circle fill="#2F3187" cx="205.167" cy="245.83" r="10.167"/>
<rect x="130.667" y="178.663" fill="#2F3187" width="91.958" height="9.337"/>
<polygon fill="#2F3187" points="234.896,128.044 114.507,114.238 113.443,123.514 231.431,137.045 232.34,137.15 "/>
<rect x="77.922" y="138.396" transform="matrix(0.2726 0.9621 -0.9621 0.2726 227.1911 -14.3629)" fill="#2F3187" width="90.343" height="9.336"/>
<polygon fill="#2F3187" points="222.749,188.018 234.833,128.132 225.159,128.88 224.789,130.715 213.597,186.17 "/>
<rect x="77.81" y="98.33" fill="#2F3187" width="37.414" height="9.337"/>
<ellipse fill="#2F3187" cx="99.265" cy="219.102" rx="0.88" ry="0.917"/>
<polygon fill="#2F3187" points="105.404,210.663 98.542,218.57 99.358,220 215.236,220 215.236,210.663 "/>
<polygon fill="#2F3187" points="99.368,220.016 109.67,220 105.404,210.663 98.548,218.581 "/>
<polygon fill="#2F3187" points="132.333,179.567 98.517,218.598 99.236,220 109.67,220 139.392,185.68 "/>
</svg>
